<mxfile host="app.diagrams.net" modified="2024-04-27T20:37:47.000Z" agent="Mozilla/5.0 (Windows NT 10.0; Win64; x64) AppleWebKit/537.36 (KHTML, like Gecko) Chrome/124.0.0.0 Safari/537.36" etag="NTT7csKUCGfHGzgskuJg" version="24.3.1" type="device">
  <diagram name="Page-1" id="2lp6oZdE-BPipIb4UrgI">
    <mxGraphModel dx="2350" dy="1896" grid="1" gridSize="10" guides="1" tooltips="1" connect="1" arrows="1" fold="1" page="1" pageScale="1" pageWidth="850" pageHeight="1100" math="0" shadow="0">
      <root>
        <mxCell id="0" />
        <mxCell id="1" parent="0" />
        <mxCell id="FVVRTqBDb79afzyqcxXZ-1" value="&lt;font style=&quot;font-size: 12px;&quot;&gt;F1 Race&lt;br&gt;&lt;/font&gt;&lt;div&gt;&lt;font style=&quot;font-size: 8px;&quot;&gt;RaceID&lt;br&gt;CircuitID&lt;br&gt;DriverID&lt;br&gt;DriverID&lt;br&gt;&lt;/font&gt;&lt;/div&gt;&lt;div&gt;&lt;font style=&quot;font-size: 8px;&quot;&gt;&lt;font style=&quot;font-size: 8px;&quot;&gt;ConstructorID&lt;/font&gt;&lt;br&gt;&lt;/font&gt;&lt;/div&gt;&lt;div&gt;&lt;font style=&quot;font-size: 8px;&quot;&gt;Position&lt;br&gt;&lt;/font&gt;&lt;/div&gt;&lt;div&gt;&lt;font style=&quot;font-size: 8px;&quot;&gt;Points&lt;br&gt;LapTime&lt;br&gt;NumOfLaps&lt;br&gt;&lt;/font&gt;&lt;font style=&quot;font-size: 8px;&quot;&gt;wins&lt;br&gt;&lt;/font&gt;&lt;font style=&quot;font-size: 8px;&quot;&gt;Round&lt;br&gt;&lt;/font&gt;&lt;font style=&quot;font-size: 8px;&quot;&gt;FastestLapSpeed&lt;br&gt;FastestLapTime&lt;/font&gt;&lt;br&gt;&lt;/div&gt;" style="shape=cube;whiteSpace=wrap;html=1;boundedLbl=1;backgroundOutline=1;darkOpacity=0.05;darkOpacity2=0.1;" parent="1" vertex="1">
          <mxGeometry x="420" y="270" width="160" height="240" as="geometry" />
        </mxCell>
        <mxCell id="FVVRTqBDb79afzyqcxXZ-2" value="DriverStandings" style="swimlane;whiteSpace=wrap;html=1;" parent="1" vertex="1">
          <mxGeometry x="580" y="673" width="140" height="110" as="geometry" />
        </mxCell>
        <mxCell id="FVVRTqBDb79afzyqcxXZ-19" value="&lt;div&gt;DriverStandingID&lt;/div&gt;&lt;div&gt;Wins&lt;/div&gt;&lt;div&gt;Position&lt;/div&gt;&lt;div&gt;Points&lt;/div&gt;" style="text;html=1;align=left;verticalAlign=middle;resizable=0;points=[];autosize=1;strokeColor=none;fillColor=none;" parent="FVVRTqBDb79afzyqcxXZ-2" vertex="1">
          <mxGeometry x="11" y="30" width="110" height="70" as="geometry" />
        </mxCell>
        <mxCell id="FVVRTqBDb79afzyqcxXZ-3" value="Circuit" style="swimlane;whiteSpace=wrap;html=1;" parent="1" vertex="1">
          <mxGeometry x="667.25" y="10" width="147" height="136" as="geometry" />
        </mxCell>
        <mxCell id="FVVRTqBDb79afzyqcxXZ-15" value="&lt;div style=&quot;text-align: left;&quot;&gt;CircuitID&lt;/div&gt;&lt;div style=&quot;text-align: left;&quot;&gt;CircuitName&lt;/div&gt;&lt;div style=&quot;text-align: left;&quot;&gt;Country&lt;/div&gt;&lt;div style=&quot;text-align: left;&quot;&gt;Latitude&lt;/div&gt;&lt;div style=&quot;text-align: left;&quot;&gt;Longitude&lt;/div&gt;&lt;div style=&quot;text-align: left;&quot;&gt;&lt;span style=&quot;background-color: initial;&quot;&gt;NumOfLaps&lt;/span&gt;&lt;/div&gt;" style="text;html=1;align=center;verticalAlign=middle;resizable=0;points=[];autosize=1;strokeColor=none;fillColor=none;" parent="FVVRTqBDb79afzyqcxXZ-3" vertex="1">
          <mxGeometry x="4" y="33" width="90" height="100" as="geometry" />
        </mxCell>
        <mxCell id="FVVRTqBDb79afzyqcxXZ-5" value="LapTime" style="swimlane;whiteSpace=wrap;html=1;" parent="1" vertex="1">
          <mxGeometry x="96" y="670" width="150" height="130" as="geometry" />
        </mxCell>
        <mxCell id="FVVRTqBDb79afzyqcxXZ-11" value="LapRecord_id" style="text;html=1;align=center;verticalAlign=middle;resizable=0;points=[];autosize=1;strokeColor=none;fillColor=none;" parent="FVVRTqBDb79afzyqcxXZ-5" vertex="1">
          <mxGeometry x="-5" y="28" width="100" height="30" as="geometry" />
        </mxCell>
        <mxCell id="FVVRTqBDb79afzyqcxXZ-12" value="LapRecordTime" style="text;html=1;align=center;verticalAlign=middle;resizable=0;points=[];autosize=1;strokeColor=none;fillColor=none;" parent="FVVRTqBDb79afzyqcxXZ-5" vertex="1">
          <mxGeometry x="-5" y="50" width="110" height="30" as="geometry" />
        </mxCell>
        <mxCell id="FVVRTqBDb79afzyqcxXZ-13" value="LapRecordDriver" style="text;html=1;align=center;verticalAlign=middle;resizable=0;points=[];autosize=1;strokeColor=none;fillColor=none;" parent="FVVRTqBDb79afzyqcxXZ-5" vertex="1">
          <mxGeometry x="-2" y="70" width="110" height="30" as="geometry" />
        </mxCell>
        <mxCell id="FVVRTqBDb79afzyqcxXZ-14" value="Position" style="text;html=1;align=center;verticalAlign=middle;resizable=0;points=[];autosize=1;strokeColor=none;fillColor=none;" parent="FVVRTqBDb79afzyqcxXZ-5" vertex="1">
          <mxGeometry x="-5" y="90" width="70" height="30" as="geometry" />
        </mxCell>
        <mxCell id="FVVRTqBDb79afzyqcxXZ-6" value="Constructor" style="swimlane;whiteSpace=wrap;html=1;" parent="1" vertex="1">
          <mxGeometry x="674.25" y="214" width="140" height="120" as="geometry" />
        </mxCell>
        <mxCell id="FVVRTqBDb79afzyqcxXZ-16" value="&lt;div&gt;&lt;u&gt;ConstructorID&lt;/u&gt;&lt;/div&gt;&lt;div&gt;ConstructorName&lt;/div&gt;&lt;div&gt;Nationality&lt;/div&gt;" style="text;html=1;align=left;verticalAlign=middle;resizable=0;points=[];autosize=1;strokeColor=none;fillColor=none;" parent="FVVRTqBDb79afzyqcxXZ-6" vertex="1">
          <mxGeometry x="10" y="35" width="120" height="60" as="geometry" />
        </mxCell>
        <mxCell id="FVVRTqBDb79afzyqcxXZ-7" value="Season" style="swimlane;whiteSpace=wrap;html=1;" parent="1" vertex="1">
          <mxGeometry x="120" y="172" width="120" height="90" as="geometry" />
        </mxCell>
        <mxCell id="FVVRTqBDb79afzyqcxXZ-17" value="&lt;u&gt;Year&lt;/u&gt;&lt;br&gt;Url" style="text;html=1;align=left;verticalAlign=middle;resizable=0;points=[];autosize=1;strokeColor=none;fillColor=none;" parent="FVVRTqBDb79afzyqcxXZ-7" vertex="1">
          <mxGeometry x="10" y="35" width="50" height="40" as="geometry" />
        </mxCell>
        <mxCell id="FVVRTqBDb79afzyqcxXZ-8" value="Race" style="swimlane;whiteSpace=wrap;html=1;" parent="1" vertex="1">
          <mxGeometry x="120" y="20" width="110" height="110" as="geometry" />
        </mxCell>
        <mxCell id="FVVRTqBDb79afzyqcxXZ-32" value="&lt;u&gt;RaceId&lt;/u&gt;&lt;br&gt;Year&lt;br&gt;Round&lt;br&gt;Name&lt;span style=&quot;font-size: medium;&quot;&gt;&lt;/span&gt;" style="text;html=1;align=left;verticalAlign=middle;resizable=0;points=[];autosize=1;strokeColor=none;fillColor=none;" parent="FVVRTqBDb79afzyqcxXZ-8" vertex="1">
          <mxGeometry x="10" y="30" width="60" height="80" as="geometry" />
        </mxCell>
        <mxCell id="FVVRTqBDb79afzyqcxXZ-9" value="Qualifying" style="swimlane;whiteSpace=wrap;html=1;" parent="1" vertex="1">
          <mxGeometry x="425" width="140" height="100" as="geometry" />
        </mxCell>
        <mxCell id="FVVRTqBDb79afzyqcxXZ-34" value="&lt;u&gt;QualifyingID&lt;/u&gt;&lt;br&gt;Number&lt;br&gt;Position" style="text;html=1;align=left;verticalAlign=middle;resizable=0;points=[];autosize=1;strokeColor=none;fillColor=none;" parent="FVVRTqBDb79afzyqcxXZ-9" vertex="1">
          <mxGeometry x="9" y="30" width="90" height="60" as="geometry" />
        </mxCell>
        <mxCell id="FVVRTqBDb79afzyqcxXZ-10" value="Results" style="swimlane;whiteSpace=wrap;html=1;" parent="1" vertex="1">
          <mxGeometry x="96" y="520" width="140" height="120" as="geometry" />
        </mxCell>
        <mxCell id="FVVRTqBDb79afzyqcxXZ-33" value="&lt;div&gt;&lt;u&gt;ResultID&lt;/u&gt;&lt;/div&gt;&lt;div&gt;Points&lt;/div&gt;&lt;div&gt;FastestLapTime&lt;/div&gt;&lt;div&gt;FastetstLapSpeed&lt;/div&gt;" style="text;html=1;align=left;verticalAlign=middle;resizable=0;points=[];autosize=1;strokeColor=none;fillColor=none;" parent="FVVRTqBDb79afzyqcxXZ-10" vertex="1">
          <mxGeometry x="5" y="30" width="120" height="70" as="geometry" />
        </mxCell>
        <mxCell id="MxePWm94RPjNCgJkYmIr-3" value="" style="endArrow=none;html=1;rounded=0;entryX=0;entryY=0;entryDx=0;entryDy=0;entryPerimeter=0;" parent="1" target="FVVRTqBDb79afzyqcxXZ-1" edge="1">
          <mxGeometry relative="1" as="geometry">
            <mxPoint x="230" y="60" as="sourcePoint" />
            <mxPoint x="390" y="370" as="targetPoint" />
            <Array as="points">
              <mxPoint x="330" y="60" />
              <mxPoint x="360" y="60" />
              <mxPoint x="360" y="160" />
              <mxPoint x="360" y="270" />
            </Array>
          </mxGeometry>
        </mxCell>
        <mxCell id="MxePWm94RPjNCgJkYmIr-6" value="Calendar" style="whiteSpace=wrap;html=1;rounded=1;arcSize=50;align=center;verticalAlign=middle;strokeWidth=1;autosize=1;spacing=4;treeFolding=1;treeMoving=1;newEdgeStyle={&quot;edgeStyle&quot;:&quot;entityRelationEdgeStyle&quot;,&quot;startArrow&quot;:&quot;none&quot;,&quot;endArrow&quot;:&quot;none&quot;,&quot;segment&quot;:10,&quot;curved&quot;:1,&quot;sourcePerimeterSpacing&quot;:0,&quot;targetPerimeterSpacing&quot;:0};" parent="1" vertex="1">
          <mxGeometry x="30" y="50" width="90" height="30" as="geometry" />
        </mxCell>
        <mxCell id="MxePWm94RPjNCgJkYmIr-10" value="ConstructorStandings" style="swimlane;whiteSpace=wrap;html=1;" parent="1" vertex="1">
          <mxGeometry x="320" y="640" width="140" height="120" as="geometry" />
        </mxCell>
        <mxCell id="MxePWm94RPjNCgJkYmIr-11" value="&lt;div&gt;ConstructorStandingID&lt;/div&gt;&lt;div&gt;Wins&lt;/div&gt;&lt;div&gt;Position&lt;/div&gt;&lt;div&gt;Points&lt;/div&gt;" style="text;html=1;align=left;verticalAlign=middle;resizable=0;points=[];autosize=1;strokeColor=none;fillColor=none;" parent="MxePWm94RPjNCgJkYmIr-10" vertex="1">
          <mxGeometry x="10" y="25" width="140" height="70" as="geometry" />
        </mxCell>
        <mxCell id="MxePWm94RPjNCgJkYmIr-14" value="Driver" style="swimlane;whiteSpace=wrap;html=1;" parent="1" vertex="1">
          <mxGeometry x="684.25" y="406" width="130" height="100" as="geometry" />
        </mxCell>
        <mxCell id="MxePWm94RPjNCgJkYmIr-15" value="&lt;div&gt;&lt;u&gt;DriverID&lt;/u&gt;&lt;/div&gt;&lt;div&gt;driverName&lt;/div&gt;&lt;div&gt;nationality&lt;/div&gt;" style="text;html=1;align=left;verticalAlign=middle;resizable=0;points=[];autosize=1;strokeColor=none;fillColor=none;" parent="MxePWm94RPjNCgJkYmIr-14" vertex="1">
          <mxGeometry x="5" y="35" width="90" height="60" as="geometry" />
        </mxCell>
        <mxCell id="MxePWm94RPjNCgJkYmIr-18" value="Week" style="swimlane;whiteSpace=wrap;html=1;" parent="1" vertex="1">
          <mxGeometry x="-150" y="78" width="120" height="68" as="geometry" />
        </mxCell>
        <mxCell id="MxePWm94RPjNCgJkYmIr-19" value="&lt;u&gt;WeekNumber&lt;/u&gt;" style="text;html=1;align=left;verticalAlign=middle;resizable=0;points=[];autosize=1;strokeColor=none;fillColor=none;" parent="MxePWm94RPjNCgJkYmIr-18" vertex="1">
          <mxGeometry x="10" y="28" width="100" height="30" as="geometry" />
        </mxCell>
        <mxCell id="MxePWm94RPjNCgJkYmIr-22" value="Month" style="swimlane;whiteSpace=wrap;html=1;" parent="1" vertex="1">
          <mxGeometry x="-150" y="174" width="120" height="68" as="geometry" />
        </mxCell>
        <mxCell id="MxePWm94RPjNCgJkYmIr-23" value="&lt;u&gt;MonthName&lt;/u&gt;" style="text;html=1;align=left;verticalAlign=middle;resizable=0;points=[];autosize=1;strokeColor=none;fillColor=none;" parent="MxePWm94RPjNCgJkYmIr-22" vertex="1">
          <mxGeometry x="10" y="28" width="90" height="30" as="geometry" />
        </mxCell>
        <mxCell id="MxePWm94RPjNCgJkYmIr-24" value="Year" style="swimlane;whiteSpace=wrap;html=1;" parent="1" vertex="1">
          <mxGeometry x="-150" y="266" width="120" height="70" as="geometry" />
        </mxCell>
        <mxCell id="MxePWm94RPjNCgJkYmIr-25" value="&lt;u&gt;Year&lt;/u&gt;" style="text;html=1;align=left;verticalAlign=middle;resizable=0;points=[];autosize=1;strokeColor=none;fillColor=none;" parent="MxePWm94RPjNCgJkYmIr-24" vertex="1">
          <mxGeometry x="10" y="28" width="50" height="30" as="geometry" />
        </mxCell>
        <mxCell id="MxePWm94RPjNCgJkYmIr-26" value="Timeline" style="whiteSpace=wrap;html=1;rounded=1;arcSize=50;align=center;verticalAlign=middle;strokeWidth=1;autosize=1;spacing=4;treeFolding=1;treeMoving=1;newEdgeStyle={&quot;edgeStyle&quot;:&quot;entityRelationEdgeStyle&quot;,&quot;startArrow&quot;:&quot;none&quot;,&quot;endArrow&quot;:&quot;none&quot;,&quot;segment&quot;:10,&quot;curved&quot;:1,&quot;sourcePerimeterSpacing&quot;:0,&quot;targetPerimeterSpacing&quot;:0};" parent="1" vertex="1">
          <mxGeometry x="30" y="184" width="90" height="30" as="geometry" />
        </mxCell>
        <mxCell id="MxePWm94RPjNCgJkYmIr-28" value="" style="edgeStyle=entityRelationEdgeStyle;fontSize=12;html=1;endArrow=ERmany;rounded=0;" parent="1" edge="1">
          <mxGeometry width="100" height="100" relative="1" as="geometry">
            <mxPoint x="-30" y="200" as="sourcePoint" />
            <mxPoint x="30" y="65" as="targetPoint" />
          </mxGeometry>
        </mxCell>
        <mxCell id="MxePWm94RPjNCgJkYmIr-29" value="" style="edgeStyle=entityRelationEdgeStyle;fontSize=12;html=1;endArrow=ERmany;rounded=0;entryX=0;entryY=0.5;entryDx=0;entryDy=0;" parent="1" target="MxePWm94RPjNCgJkYmIr-26" edge="1">
          <mxGeometry width="100" height="100" relative="1" as="geometry">
            <mxPoint x="-30" y="200" as="sourcePoint" />
            <mxPoint x="310" y="200" as="targetPoint" />
          </mxGeometry>
        </mxCell>
        <mxCell id="MxePWm94RPjNCgJkYmIr-35" value="Milliseconds" style="swimlane;whiteSpace=wrap;html=1;" parent="1" vertex="1">
          <mxGeometry x="-170" y="450" width="120" height="68" as="geometry" />
        </mxCell>
        <mxCell id="MxePWm94RPjNCgJkYmIr-36" value="&lt;u&gt;Milliseconds&lt;/u&gt;" style="text;html=1;align=left;verticalAlign=middle;resizable=0;points=[];autosize=1;strokeColor=none;fillColor=none;" parent="MxePWm94RPjNCgJkYmIr-35" vertex="1">
          <mxGeometry x="5" y="30" width="90" height="30" as="geometry" />
        </mxCell>
        <mxCell id="MxePWm94RPjNCgJkYmIr-37" value="Minutes" style="swimlane;whiteSpace=wrap;html=1;" parent="1" vertex="1">
          <mxGeometry x="-170" y="546" width="120" height="68" as="geometry" />
        </mxCell>
        <mxCell id="MxePWm94RPjNCgJkYmIr-38" value="&lt;u&gt;Minutes&lt;/u&gt;" style="text;html=1;align=left;verticalAlign=middle;resizable=0;points=[];autosize=1;strokeColor=none;fillColor=none;" parent="MxePWm94RPjNCgJkYmIr-37" vertex="1">
          <mxGeometry x="5" y="28" width="70" height="30" as="geometry" />
        </mxCell>
        <mxCell id="MxePWm94RPjNCgJkYmIr-39" value="Hours" style="swimlane;whiteSpace=wrap;html=1;" parent="1" vertex="1">
          <mxGeometry x="-170" y="640" width="120" height="70" as="geometry" />
        </mxCell>
        <mxCell id="MxePWm94RPjNCgJkYmIr-40" value="&lt;u&gt;Hours&lt;/u&gt;" style="text;html=1;align=left;verticalAlign=middle;resizable=0;points=[];autosize=1;strokeColor=none;fillColor=none;" parent="MxePWm94RPjNCgJkYmIr-39" vertex="1">
          <mxGeometry x="10" y="28" width="60" height="30" as="geometry" />
        </mxCell>
        <mxCell id="MxePWm94RPjNCgJkYmIr-43" value="Country" style="swimlane;whiteSpace=wrap;html=1;" parent="1" vertex="1">
          <mxGeometry x="880" y="299" width="120" height="68" as="geometry" />
        </mxCell>
        <mxCell id="MxePWm94RPjNCgJkYmIr-44" value="&lt;u&gt;CountryName&lt;/u&gt;" style="text;html=1;align=left;verticalAlign=middle;resizable=0;points=[];autosize=1;strokeColor=none;fillColor=none;" parent="MxePWm94RPjNCgJkYmIr-43" vertex="1">
          <mxGeometry x="5" y="29" width="100" height="30" as="geometry" />
        </mxCell>
        <mxCell id="MxePWm94RPjNCgJkYmIr-45" value="City" style="swimlane;whiteSpace=wrap;html=1;" parent="1" vertex="1">
          <mxGeometry x="880" y="192" width="120" height="68" as="geometry" />
        </mxCell>
        <mxCell id="MxePWm94RPjNCgJkYmIr-46" value="&lt;u&gt;CityName&lt;/u&gt;" style="text;html=1;align=left;verticalAlign=middle;resizable=0;points=[];autosize=1;strokeColor=none;fillColor=none;" parent="MxePWm94RPjNCgJkYmIr-45" vertex="1">
          <mxGeometry x="5" y="28" width="80" height="30" as="geometry" />
        </mxCell>
        <mxCell id="MxePWm94RPjNCgJkYmIr-47" value="Region" style="swimlane;whiteSpace=wrap;html=1;" parent="1" vertex="1">
          <mxGeometry x="880" y="406" width="120" height="70" as="geometry" />
        </mxCell>
        <mxCell id="MxePWm94RPjNCgJkYmIr-48" value="&lt;u&gt;RegionName&lt;/u&gt;" style="text;html=1;align=left;verticalAlign=middle;resizable=0;points=[];autosize=1;strokeColor=none;fillColor=none;" parent="MxePWm94RPjNCgJkYmIr-47" vertex="1">
          <mxGeometry x="10" y="28" width="90" height="30" as="geometry" />
        </mxCell>
        <mxCell id="MxePWm94RPjNCgJkYmIr-12" value="ConstructorResults" style="swimlane;whiteSpace=wrap;html=1;" parent="1" vertex="1">
          <mxGeometry x="96" y="350" width="140" height="120" as="geometry" />
        </mxCell>
        <mxCell id="MxePWm94RPjNCgJkYmIr-13" value="&lt;div&gt;&lt;u&gt;&lt;br&gt;&lt;/u&gt;&lt;/div&gt;&lt;div&gt;&lt;u&gt;ConstructorResultID&lt;/u&gt;&lt;/div&gt;&lt;div&gt;ConstructorID&lt;/div&gt;&lt;div&gt;DriverID&lt;/div&gt;&lt;div&gt;Points&lt;/div&gt;&lt;div&gt;FastestLapTime&lt;/div&gt;&lt;div&gt;FastetstLapSpeed&lt;/div&gt;" style="text;html=1;align=left;verticalAlign=middle;resizable=0;points=[];autosize=1;strokeColor=none;fillColor=none;" parent="MxePWm94RPjNCgJkYmIr-12" vertex="1">
          <mxGeometry x="5" y="10" width="130" height="110" as="geometry" />
        </mxCell>
        <mxCell id="MxePWm94RPjNCgJkYmIr-57" value="Lap" style="whiteSpace=wrap;html=1;rounded=1;arcSize=50;align=center;verticalAlign=middle;strokeWidth=1;autosize=1;spacing=4;treeFolding=1;treeMoving=1;newEdgeStyle={&quot;edgeStyle&quot;:&quot;entityRelationEdgeStyle&quot;,&quot;startArrow&quot;:&quot;none&quot;,&quot;endArrow&quot;:&quot;none&quot;,&quot;segment&quot;:10,&quot;curved&quot;:1,&quot;sourcePerimeterSpacing&quot;:0,&quot;targetPerimeterSpacing&quot;:0};" parent="1" vertex="1">
          <mxGeometry x="20" y="395" width="75" height="25" as="geometry" />
        </mxCell>
        <mxCell id="MxePWm94RPjNCgJkYmIr-63" value="" style="edgeStyle=entityRelationEdgeStyle;fontSize=12;html=1;endArrow=ERmany;rounded=0;" parent="1" edge="1">
          <mxGeometry width="100" height="100" relative="1" as="geometry">
            <mxPoint x="-10" y="409.5" as="sourcePoint" />
            <mxPoint x="20" y="409.5" as="targetPoint" />
            <Array as="points">
              <mxPoint x="10" y="359.5" />
              <mxPoint y="410" />
              <mxPoint y="410" />
              <mxPoint x="30" y="410" />
              <mxPoint y="360" />
              <mxPoint x="10" y="370" />
              <mxPoint x="30" y="330" />
            </Array>
          </mxGeometry>
        </mxCell>
        <mxCell id="MxePWm94RPjNCgJkYmIr-65" value="" style="endArrow=none;html=1;rounded=0;entryX=1;entryY=0.5;entryDx=0;entryDy=0;" parent="1" target="MxePWm94RPjNCgJkYmIr-35" edge="1">
          <mxGeometry width="50" height="50" relative="1" as="geometry">
            <mxPoint x="-10" y="410" as="sourcePoint" />
            <mxPoint x="-10" y="520" as="targetPoint" />
            <Array as="points">
              <mxPoint x="-10" y="484" />
            </Array>
          </mxGeometry>
        </mxCell>
        <mxCell id="MxePWm94RPjNCgJkYmIr-66" value="Lap" style="whiteSpace=wrap;html=1;rounded=1;arcSize=50;align=center;verticalAlign=middle;strokeWidth=1;autosize=1;spacing=4;treeFolding=1;treeMoving=1;newEdgeStyle={&quot;edgeStyle&quot;:&quot;entityRelationEdgeStyle&quot;,&quot;startArrow&quot;:&quot;none&quot;,&quot;endArrow&quot;:&quot;none&quot;,&quot;segment&quot;:10,&quot;curved&quot;:1,&quot;sourcePerimeterSpacing&quot;:0,&quot;targetPerimeterSpacing&quot;:0};" parent="1" vertex="1">
          <mxGeometry x="20" y="550" width="75" height="29" as="geometry" />
        </mxCell>
        <mxCell id="MxePWm94RPjNCgJkYmIr-67" value="" style="edgeStyle=entityRelationEdgeStyle;fontSize=12;html=1;endArrow=ERmany;rounded=0;" parent="1" edge="1">
          <mxGeometry width="100" height="100" relative="1" as="geometry">
            <mxPoint x="-10" y="565.5" as="sourcePoint" />
            <mxPoint x="20" y="565.5" as="targetPoint" />
            <Array as="points">
              <mxPoint x="10" y="515.5" />
              <mxPoint y="566" />
              <mxPoint y="566" />
              <mxPoint x="30" y="566" />
              <mxPoint y="516" />
              <mxPoint x="10" y="526" />
              <mxPoint x="30" y="486" />
            </Array>
          </mxGeometry>
        </mxCell>
        <mxCell id="MxePWm94RPjNCgJkYmIr-68" value="" style="endArrow=none;html=1;rounded=0;entryX=1;entryY=0.5;entryDx=0;entryDy=0;" parent="1" target="MxePWm94RPjNCgJkYmIr-35" edge="1">
          <mxGeometry width="50" height="50" relative="1" as="geometry">
            <mxPoint x="-10" y="566" as="sourcePoint" />
            <mxPoint x="-50" y="640" as="targetPoint" />
            <Array as="points">
              <mxPoint x="-10" y="484" />
            </Array>
          </mxGeometry>
        </mxCell>
        <mxCell id="MxePWm94RPjNCgJkYmIr-69" value="Lap" style="whiteSpace=wrap;html=1;rounded=1;arcSize=50;align=center;verticalAlign=middle;strokeWidth=1;autosize=1;spacing=4;treeFolding=1;treeMoving=1;newEdgeStyle={&quot;edgeStyle&quot;:&quot;entityRelationEdgeStyle&quot;,&quot;startArrow&quot;:&quot;none&quot;,&quot;endArrow&quot;:&quot;none&quot;,&quot;segment&quot;:10,&quot;curved&quot;:1,&quot;sourcePerimeterSpacing&quot;:0,&quot;targetPerimeterSpacing&quot;:0};" parent="1" vertex="1">
          <mxGeometry x="20" y="713" width="75" height="30" as="geometry" />
        </mxCell>
        <mxCell id="MxePWm94RPjNCgJkYmIr-70" value="" style="edgeStyle=entityRelationEdgeStyle;fontSize=12;html=1;endArrow=ERmany;rounded=0;" parent="1" edge="1">
          <mxGeometry width="100" height="100" relative="1" as="geometry">
            <mxPoint x="-10" y="729.5" as="sourcePoint" />
            <mxPoint x="20" y="729.5" as="targetPoint" />
            <Array as="points">
              <mxPoint x="10" y="679.5" />
              <mxPoint y="730" />
              <mxPoint y="730" />
              <mxPoint x="30" y="730" />
              <mxPoint y="680" />
              <mxPoint x="10" y="690" />
              <mxPoint x="30" y="650" />
            </Array>
          </mxGeometry>
        </mxCell>
        <mxCell id="MxePWm94RPjNCgJkYmIr-72" value="" style="endArrow=none;html=1;rounded=0;" parent="1" edge="1">
          <mxGeometry width="50" height="50" relative="1" as="geometry">
            <mxPoint x="-10" y="550" as="sourcePoint" />
            <mxPoint x="-10" y="730" as="targetPoint" />
          </mxGeometry>
        </mxCell>
        <mxCell id="MxePWm94RPjNCgJkYmIr-88" value="" style="fontSize=12;html=1;endArrow=ERmany;rounded=0;endFill=0;edgeStyle=orthogonalEdgeStyle;exitX=0.5;exitY=0;exitDx=0;exitDy=0;entryX=0.5;entryY=1;entryDx=0;entryDy=0;" parent="1" source="MxePWm94RPjNCgJkYmIr-43" target="MxePWm94RPjNCgJkYmIr-45" edge="1">
          <mxGeometry width="100" height="100" relative="1" as="geometry">
            <mxPoint x="1156" y="170" as="sourcePoint" />
            <mxPoint x="930" y="260" as="targetPoint" />
          </mxGeometry>
        </mxCell>
        <mxCell id="MxePWm94RPjNCgJkYmIr-89" value="" style="fontSize=12;html=1;endArrow=ERmany;rounded=0;endFill=0;edgeStyle=orthogonalEdgeStyle;exitX=0.5;exitY=0;exitDx=0;exitDy=0;entryX=0.5;entryY=1;entryDx=0;entryDy=0;" parent="1" source="MxePWm94RPjNCgJkYmIr-47" target="MxePWm94RPjNCgJkYmIr-43" edge="1">
          <mxGeometry width="100" height="100" relative="1" as="geometry">
            <mxPoint x="950" y="309" as="sourcePoint" />
            <mxPoint x="950" y="270" as="targetPoint" />
          </mxGeometry>
        </mxCell>
        <mxCell id="MxePWm94RPjNCgJkYmIr-91" value="" style="fontSize=12;html=1;endArrow=ERmany;rounded=0;endFill=0;edgeStyle=orthogonalEdgeStyle;entryX=0.5;entryY=1;entryDx=0;entryDy=0;" parent="1" target="MxePWm94RPjNCgJkYmIr-18" edge="1">
          <mxGeometry width="100" height="100" relative="1" as="geometry">
            <mxPoint x="-90" y="174" as="sourcePoint" />
            <mxPoint x="179.98000000000002" y="131" as="targetPoint" />
          </mxGeometry>
        </mxCell>
        <mxCell id="MxePWm94RPjNCgJkYmIr-93" value="" style="edgeStyle=orthogonalEdgeStyle;fontSize=12;html=1;endArrow=ERmany;rounded=0;entryX=0.5;entryY=1;entryDx=0;entryDy=0;exitX=0.5;exitY=0;exitDx=0;exitDy=0;" parent="1" source="MxePWm94RPjNCgJkYmIr-24" target="MxePWm94RPjNCgJkYmIr-22" edge="1">
          <mxGeometry width="100" height="100" relative="1" as="geometry">
            <mxPoint x="150" y="580" as="sourcePoint" />
            <mxPoint x="250" y="480" as="targetPoint" />
          </mxGeometry>
        </mxCell>
        <mxCell id="MxePWm94RPjNCgJkYmIr-94" value="" style="edgeStyle=orthogonalEdgeStyle;fontSize=12;html=1;endArrow=ERmany;rounded=0;entryX=0.5;entryY=1;entryDx=0;entryDy=0;exitX=0.5;exitY=0;exitDx=0;exitDy=0;" parent="1" source="MxePWm94RPjNCgJkYmIr-37" target="MxePWm94RPjNCgJkYmIr-35" edge="1">
          <mxGeometry width="100" height="100" relative="1" as="geometry">
            <mxPoint x="-80" y="276" as="sourcePoint" />
            <mxPoint x="-80" y="252" as="targetPoint" />
          </mxGeometry>
        </mxCell>
        <mxCell id="MxePWm94RPjNCgJkYmIr-96" value="" style="edgeStyle=orthogonalEdgeStyle;fontSize=12;html=1;endArrow=ERmany;rounded=0;entryX=0.5;entryY=1;entryDx=0;entryDy=0;exitX=0.5;exitY=0;exitDx=0;exitDy=0;" parent="1" source="MxePWm94RPjNCgJkYmIr-39" target="MxePWm94RPjNCgJkYmIr-37" edge="1">
          <mxGeometry width="100" height="100" relative="1" as="geometry">
            <mxPoint x="-100" y="594" as="sourcePoint" />
            <mxPoint x="-110" y="652" as="targetPoint" />
          </mxGeometry>
        </mxCell>
        <mxCell id="MxePWm94RPjNCgJkYmIr-98" value="" style="fontSize=12;html=1;endArrow=ERmany;rounded=0;entryX=0.481;entryY=-0.016;entryDx=0;entryDy=0;entryPerimeter=0;exitX=-0.002;exitY=0.176;exitDx=0;exitDy=0;exitPerimeter=0;" parent="1" source="FVVRTqBDb79afzyqcxXZ-3" edge="1">
          <mxGeometry width="100" height="100" relative="1" as="geometry">
            <mxPoint x="670" y="47" as="sourcePoint" />
            <mxPoint x="496.96000000000004" y="270.00000000000006" as="targetPoint" />
            <Array as="points">
              <mxPoint x="600" y="34" />
              <mxPoint x="600" y="143.04" />
              <mxPoint x="500" y="143.04" />
            </Array>
          </mxGeometry>
        </mxCell>
        <mxCell id="MxePWm94RPjNCgJkYmIr-99" value="" style="edgeStyle=orthogonalEdgeStyle;fontSize=12;html=1;endArrow=ERmany;rounded=0;exitX=1;exitY=0.5;exitDx=0;exitDy=0;entryX=0;entryY=0;entryDx=0;entryDy=85;entryPerimeter=0;" parent="1" source="FVVRTqBDb79afzyqcxXZ-7" target="FVVRTqBDb79afzyqcxXZ-1" edge="1">
          <mxGeometry width="100" height="100" relative="1" as="geometry">
            <mxPoint x="530" y="310" as="sourcePoint" />
            <mxPoint x="340" y="380" as="targetPoint" />
          </mxGeometry>
        </mxCell>
        <mxCell id="MxePWm94RPjNCgJkYmIr-100" value="" style="edgeStyle=orthogonalEdgeStyle;fontSize=12;html=1;endArrow=ERmany;rounded=0;exitX=0;exitY=0;exitDx=20;exitDy=190;exitPerimeter=0;entryX=0.5;entryY=0;entryDx=0;entryDy=0;" parent="1" source="FVVRTqBDb79afzyqcxXZ-1" target="MxePWm94RPjNCgJkYmIr-10" edge="1">
          <mxGeometry width="100" height="100" relative="1" as="geometry">
            <mxPoint x="260" y="480" as="sourcePoint" />
            <mxPoint x="370" y="450" as="targetPoint" />
          </mxGeometry>
        </mxCell>
        <mxCell id="MxePWm94RPjNCgJkYmIr-101" value="" style="edgeStyle=orthogonalEdgeStyle;fontSize=12;html=1;endArrow=ERmany;rounded=0;entryX=0.457;entryY=0;entryDx=0;entryDy=0;entryPerimeter=0;exitX=0.683;exitY=1.003;exitDx=0;exitDy=0;exitPerimeter=0;" parent="1" source="FVVRTqBDb79afzyqcxXZ-1" target="FVVRTqBDb79afzyqcxXZ-2" edge="1">
          <mxGeometry width="100" height="100" relative="1" as="geometry">
            <mxPoint x="410" y="540" as="sourcePoint" />
            <mxPoint x="450" y="470" as="targetPoint" />
          </mxGeometry>
        </mxCell>
        <mxCell id="MxePWm94RPjNCgJkYmIr-103" value="" style="edgeStyle=orthogonalEdgeStyle;fontSize=12;html=1;endArrow=ERmany;rounded=0;entryX=1;entryY=0.5;entryDx=0;entryDy=0;exitX=-0.012;exitY=0.732;exitDx=0;exitDy=0;exitPerimeter=0;" parent="1" source="FVVRTqBDb79afzyqcxXZ-1" target="MxePWm94RPjNCgJkYmIr-12" edge="1">
          <mxGeometry width="100" height="100" relative="1" as="geometry">
            <mxPoint x="260" y="410" as="sourcePoint" />
            <mxPoint x="360" y="310" as="targetPoint" />
          </mxGeometry>
        </mxCell>
        <mxCell id="MxePWm94RPjNCgJkYmIr-104" value="" style="edgeStyle=orthogonalEdgeStyle;fontSize=12;html=1;endArrow=ERmany;rounded=0;entryX=1;entryY=0.5;entryDx=0;entryDy=0;" parent="1" edge="1">
          <mxGeometry width="100" height="100" relative="1" as="geometry">
            <mxPoint x="330" y="409" as="sourcePoint" />
            <mxPoint x="236" y="578" as="targetPoint" />
            <Array as="points">
              <mxPoint x="320" y="409" />
              <mxPoint x="278" y="409" />
              <mxPoint x="278" y="578" />
            </Array>
          </mxGeometry>
        </mxCell>
        <mxCell id="MxePWm94RPjNCgJkYmIr-108" value="" style="edgeStyle=orthogonalEdgeStyle;fontSize=12;html=1;endArrow=ERmany;rounded=0;entryX=1;entryY=0.5;entryDx=0;entryDy=0;" parent="1" target="FVVRTqBDb79afzyqcxXZ-5" edge="1">
          <mxGeometry width="100" height="100" relative="1" as="geometry">
            <mxPoint x="310" y="410" as="sourcePoint" />
            <mxPoint x="310" y="790" as="targetPoint" />
          </mxGeometry>
        </mxCell>
        <mxCell id="MxePWm94RPjNCgJkYmIr-110" value="" style="edgeStyle=orthogonalEdgeStyle;fontSize=12;html=1;endArrow=ERmany;rounded=0;entryX=0.25;entryY=1;entryDx=0;entryDy=0;exitX=0.25;exitY=-0.016;exitDx=0;exitDy=0;exitPerimeter=0;" parent="1" source="FVVRTqBDb79afzyqcxXZ-1" target="FVVRTqBDb79afzyqcxXZ-9" edge="1">
          <mxGeometry width="100" height="100" relative="1" as="geometry">
            <mxPoint x="460" y="260" as="sourcePoint" />
            <mxPoint x="500" y="100" as="targetPoint" />
          </mxGeometry>
        </mxCell>
        <mxCell id="MxePWm94RPjNCgJkYmIr-111" value="" style="edgeStyle=orthogonalEdgeStyle;fontSize=12;html=1;endArrow=ERmany;rounded=0;entryX=0;entryY=0.25;entryDx=0;entryDy=0;exitX=0;exitY=0;exitDx=160;exitDy=105;exitPerimeter=0;" parent="1" source="FVVRTqBDb79afzyqcxXZ-1" target="FVVRTqBDb79afzyqcxXZ-6" edge="1">
          <mxGeometry width="100" height="100" relative="1" as="geometry">
            <mxPoint x="460" y="340" as="sourcePoint" />
            <mxPoint x="560" y="240" as="targetPoint" />
          </mxGeometry>
        </mxCell>
        <mxCell id="MxePWm94RPjNCgJkYmIr-112" value="" style="edgeStyle=orthogonalEdgeStyle;fontSize=12;html=1;endArrow=ERmany;rounded=0;entryX=0;entryY=0.75;entryDx=0;entryDy=0;exitX=1;exitY=0.747;exitDx=0;exitDy=0;exitPerimeter=0;" parent="1" source="FVVRTqBDb79afzyqcxXZ-1" target="MxePWm94RPjNCgJkYmIr-14" edge="1">
          <mxGeometry width="100" height="100" relative="1" as="geometry">
            <mxPoint x="460" y="340" as="sourcePoint" />
            <mxPoint x="560" y="240" as="targetPoint" />
          </mxGeometry>
        </mxCell>
        <mxCell id="MxePWm94RPjNCgJkYmIr-114" value="Geography" style="whiteSpace=wrap;html=1;rounded=1;arcSize=50;align=center;verticalAlign=middle;strokeWidth=1;autosize=1;spacing=4;treeFolding=1;treeMoving=1;newEdgeStyle={&quot;edgeStyle&quot;:&quot;entityRelationEdgeStyle&quot;,&quot;startArrow&quot;:&quot;none&quot;,&quot;endArrow&quot;:&quot;none&quot;,&quot;segment&quot;:10,&quot;curved&quot;:1,&quot;sourcePerimeterSpacing&quot;:0,&quot;targetPerimeterSpacing&quot;:0};" parent="1" vertex="1">
          <mxGeometry x="703.75" y="183" width="71.5" height="30" as="geometry" />
        </mxCell>
        <mxCell id="MxePWm94RPjNCgJkYmIr-115" value="Geography" style="whiteSpace=wrap;html=1;rounded=1;arcSize=50;align=center;verticalAlign=middle;strokeWidth=1;autosize=1;spacing=4;treeFolding=1;treeMoving=1;newEdgeStyle={&quot;edgeStyle&quot;:&quot;entityRelationEdgeStyle&quot;,&quot;startArrow&quot;:&quot;none&quot;,&quot;endArrow&quot;:&quot;none&quot;,&quot;segment&quot;:10,&quot;curved&quot;:1,&quot;sourcePerimeterSpacing&quot;:0,&quot;targetPerimeterSpacing&quot;:0};" parent="1" vertex="1">
          <mxGeometry x="700.25" y="-20" width="71.5" height="30" as="geometry" />
        </mxCell>
        <mxCell id="MxePWm94RPjNCgJkYmIr-116" value="Geography" style="whiteSpace=wrap;html=1;rounded=1;arcSize=50;align=center;verticalAlign=middle;strokeWidth=1;autosize=1;spacing=4;treeFolding=1;treeMoving=1;newEdgeStyle={&quot;edgeStyle&quot;:&quot;entityRelationEdgeStyle&quot;,&quot;startArrow&quot;:&quot;none&quot;,&quot;endArrow&quot;:&quot;none&quot;,&quot;segment&quot;:10,&quot;curved&quot;:1,&quot;sourcePerimeterSpacing&quot;:0,&quot;targetPerimeterSpacing&quot;:0};" parent="1" vertex="1">
          <mxGeometry x="708.5" y="376" width="71.5" height="30" as="geometry" />
        </mxCell>
        <mxCell id="MxePWm94RPjNCgJkYmIr-120" value="" style="edgeStyle=orthogonalEdgeStyle;fontSize=12;html=1;endArrow=ERmany;rounded=0;entryX=1;entryY=0.5;entryDx=0;entryDy=0;exitX=0;exitY=0.75;exitDx=0;exitDy=0;" parent="1" source="MxePWm94RPjNCgJkYmIr-45" target="MxePWm94RPjNCgJkYmIr-116" edge="1">
          <mxGeometry width="100" height="100" relative="1" as="geometry">
            <mxPoint x="965.75" y="273" as="sourcePoint" />
            <mxPoint x="830" y="406" as="targetPoint" />
          </mxGeometry>
        </mxCell>
        <mxCell id="MxePWm94RPjNCgJkYmIr-121" value="" style="edgeStyle=orthogonalEdgeStyle;fontSize=12;html=1;endArrow=ERmany;rounded=0;entryX=1;entryY=0.5;entryDx=0;entryDy=0;" parent="1" target="MxePWm94RPjNCgJkYmIr-114" edge="1">
          <mxGeometry width="100" height="100" relative="1" as="geometry">
            <mxPoint x="880" y="198" as="sourcePoint" />
            <mxPoint x="660" y="190" as="targetPoint" />
          </mxGeometry>
        </mxCell>
        <mxCell id="MxePWm94RPjNCgJkYmIr-122" value="" style="edgeStyle=orthogonalEdgeStyle;fontSize=12;html=1;endArrow=ERmany;rounded=0;entryX=1;entryY=0.5;entryDx=0;entryDy=0;exitX=0.5;exitY=0;exitDx=0;exitDy=0;" parent="1" source="MxePWm94RPjNCgJkYmIr-45" target="MxePWm94RPjNCgJkYmIr-115" edge="1">
          <mxGeometry width="100" height="100" relative="1" as="geometry">
            <mxPoint x="560" y="290" as="sourcePoint" />
            <mxPoint x="660" y="190" as="targetPoint" />
          </mxGeometry>
        </mxCell>
      </root>
    </mxGraphModel>
  </diagram>
</mxfile>
